# xmcd CD database file
#
# Track frame offsets:
#	150
#	13695
#	26171
#	40916
#	54643
#	70990
#	92949
#	111503
#	130923
#	148206
#	164973
#	183059
#	201480
#	214370
#	237951
#	254667
#	272454
#	293864
#	312146
#	325618
#
# Disc length: 4625 seconds
#
# Revision: 0
# Processed by: cddbd v1.5.2PL0 Copyright (c) Steve Scherf et al.
# Submitted via: CDex 1.79
#
DISCID=41120f14
DTITLE=Oscar Pettiford - Basically Duke and In Hi-Fi and In Hi-Fi Vol. 2
DYEAR=1900
DGENRE=Jazz
TTITLE0=Mood Indigo
TTITLE1=Chuckles
TTITLE2=Time On My Hands
TTITLE3=The Pendulum at Falcon's Lair
TTITLE4=The Gentle Art Of Love
TTITLE5=Not So Sleepy
TTITLE6=Speculation
TTITLE7=Smoke Signal
TTITLE8=Nica's Tempo
TTITLE9=Deep Passion
TTITLE10=Sunset
TTITLE11=Perdido
TTITLE12=Two French Fries
TTITLE13=Now See How You Are
TTITLE14=Laura
TTITLE15=Aw Come On
TTITLE16=I Remember Clifford
TTITLE17=Somewhere
TTITLE18=Seabreeze
TTITLE19=Little Niles
EXTD=
EXTT0=
EXTT1=
EXTT2=
EXTT3=
EXTT4=
EXTT5=
EXTT6=
EXTT7=
EXTT8=
EXTT9=
EXTT10=
EXTT11=
EXTT12=
EXTT13=
EXTT14=
EXTT15=
EXTT16=
EXTT17=
EXTT18=
EXTT19=
PLAYORDER=
